<svg width="231" height="33" viewBox="0 0 231 33" fill="none" xmlns="http://www.w3.org/2000/svg">
<path d="M1.80469 0.992188C2.63802 1.01823 3.36719 1.03125 3.99219 1.03125C4.61719 1.00521 5.125 0.992188 5.51562 0.992188H6.64844C6.9349 0.966146 7.28646 0.953125 7.70312 0.953125C8.06771 0.953125 8.51042 0.953125 9.03125 0.953125C9.55208 0.953125 10.151 0.966146 10.8281 0.992188C11.0365 1.72135 11.2708 2.4375 11.5312 3.14062C11.8177 3.81771 12.0651 4.42969 12.2734 4.97656C12.5339 5.6276 12.7943 6.23958 13.0547 6.8125C13.3151 7.38542 13.6276 8.07552 13.9922 8.88281C14.3047 9.5599 14.6823 10.3932 15.125 11.3828C15.5677 12.3464 16.0885 13.4531 16.6875 14.7031C16.974 13.8958 17.2344 13.1536 17.4688 12.4766C17.7292 11.7995 17.9505 11.2135 18.1328 10.7188C18.3411 10.1458 18.5104 9.625 18.6406 9.15625C18.7708 8.6875 18.9141 8.11458 19.0703 7.4375C19.2005 6.86458 19.3438 6.17448 19.5 5.36719C19.6823 4.5599 19.8646 3.6224 20.0469 2.55469C20.8021 2.55469 21.4792 2.55469 22.0781 2.55469C22.6771 2.55469 23.1979 2.54167 23.6406 2.51562C24.1354 2.51562 24.5781 2.5026 24.9688 2.47656C25.3854 2.47656 25.9453 2.45052 26.6484 2.39844C27.2474 2.34635 28.0417 2.30729 29.0312 2.28125C30.0469 2.22917 31.2969 2.16406 32.7812 2.08594C32.2344 2.47656 31.7917 2.86719 31.4531 3.25781C31.1406 3.6224 30.8932 3.94792 30.7109 4.23438C30.5026 4.57292 30.3724 4.89844 30.3203 5.21094C30.2682 5.47135 30.2161 6.07031 30.1641 7.00781C30.138 7.94531 30.099 9.0651 30.0469 10.3672C30.0208 11.6432 29.9948 13.0104 29.9688 14.4688C29.9688 15.9271 29.9818 17.3073 30.0078 18.6094C30.0339 19.9115 30.0729 21.0443 30.125 22.0078C30.2031 22.9453 30.3073 23.5443 30.4375 23.8047C30.6198 24.1172 30.8672 24.4818 31.1797 24.8984C31.4661 25.263 31.8307 25.6797 32.2734 26.1484C32.7422 26.6172 33.3542 27.138 34.1094 27.7109C32.9115 27.763 31.9089 27.8021 31.1016 27.8281C30.3203 27.8542 29.6693 27.8802 29.1484 27.9062C28.5495 27.9323 28.0677 27.9453 27.7031 27.9453C27.3125 27.9453 26.7786 27.9583 26.1016 27.9844C25.5026 28.0104 24.7083 28.0495 23.7188 28.1016C22.7292 28.1276 21.4531 28.1797 19.8906 28.2578C20.2552 27.8411 20.5938 27.4245 20.9062 27.0078C21.2188 26.5911 21.4792 26.2135 21.6875 25.875C21.9479 25.4844 22.1693 25.1068 22.3516 24.7422C22.5339 24.2474 22.6771 23.349 22.7812 22.0469C22.8854 20.9271 22.9635 19.3255 23.0156 17.2422C23.0677 15.1328 23.0677 12.3073 23.0156 8.76562C22.5208 9.57292 22.0781 10.3802 21.6875 11.1875C21.3229 11.9688 20.9974 12.6849 20.7109 13.3359C20.3984 14.0911 20.112 14.8203 19.8516 15.5234C19.5911 16.2526 19.3177 17.0599 19.0312 17.9453C18.7708 18.7005 18.4583 19.599 18.0938 20.6406C17.7552 21.6823 17.3646 22.8281 16.9219 24.0781L15.4375 24.1562C15.2292 23.1146 15.0208 22.1771 14.8125 21.3438C14.6042 20.4844 14.3958 19.7552 14.1875 19.1562C13.9531 18.4531 13.7188 17.8281 13.4844 17.2812C13.224 16.7344 12.9375 16.1224 12.625 15.4453C12.3385 14.8724 11.987 14.1953 11.5703 13.4141C11.1797 12.6328 10.724 11.7604 10.2031 10.7969C9.94271 13.4531 9.78646 15.6146 9.73438 17.2812C9.68229 18.9219 9.68229 20.1979 9.73438 21.1094C9.78646 22.2031 9.86458 22.9974 9.96875 23.4922C10.125 23.9349 10.3724 24.4297 10.7109 24.9766C10.9974 25.4453 11.388 26.0052 11.8828 26.6562C12.4036 27.2812 13.0677 27.9844 13.875 28.7656C13.3021 28.7656 12.7031 28.7656 12.0781 28.7656C11.4531 28.7656 10.8802 28.7786 10.3594 28.8047C9.73438 28.8307 9.1224 28.8438 8.52344 28.8438C7.89844 28.8698 7.16927 28.9089 6.33594 28.9609C5.60677 29.013 4.73438 29.0651 3.71875 29.1172C2.70312 29.1693 1.53125 29.2604 0.203125 29.3906C0.776042 29.026 1.24479 28.6745 1.60938 28.3359C1.97396 27.9714 2.26042 27.6458 2.46875 27.3594C2.72917 27.0208 2.92448 26.6823 3.05469 26.3438C3.13281 26.1354 3.19792 25.6797 3.25 24.9766C3.32812 24.2734 3.39323 23.4141 3.44531 22.3984C3.52344 21.3828 3.57552 20.25 3.60156 19C3.65365 17.75 3.69271 16.487 3.71875 15.2109C3.77083 13.9089 3.8099 12.6458 3.83594 11.4219C3.86198 10.1719 3.875 9.05208 3.875 8.0625C3.90104 7.04688 3.91406 6.20052 3.91406 5.52344C3.91406 4.84635 3.91406 4.41667 3.91406 4.23438C3.83594 3.84375 3.71875 3.45312 3.5625 3.0625C3.43229 2.72396 3.22396 2.3724 2.9375 2.00781C2.65104 1.64323 2.27344 1.30469 1.80469 0.992188ZM36.6484 13.1797C36.7786 13.0234 36.8568 12.737 36.8828 12.3203C36.9349 11.8776 37.0391 11.3828 37.1953 10.8359C37.3776 10.2891 37.6771 9.71615 38.0938 9.11719C38.5104 8.51823 39.1875 7.95833 40.125 7.4375C41.0365 6.91667 41.9219 6.60417 42.7812 6.5C43.6406 6.39583 44.4609 6.4349 45.2422 6.61719C46.0234 6.79948 46.7526 7.08594 47.4297 7.47656C48.1328 7.86719 48.7708 8.29688 49.3438 8.76562C49.7344 9.07812 50.0469 9.53385 50.2812 10.1328C50.5156 10.7057 50.6979 11.3568 50.8281 12.0859C50.9583 12.8151 51.0495 13.5833 51.1016 14.3906C51.1797 15.1719 51.2318 15.9401 51.2578 16.6953C51.2839 17.4245 51.2969 18.1016 51.2969 18.7266C51.3229 19.3255 51.375 19.8203 51.4531 20.2109C51.5573 20.7839 51.7396 21.2786 52 21.6953C52.2604 22.0859 52.5469 22.4245 52.8594 22.7109C53.1719 22.9714 53.4844 23.1797 53.7969 23.3359C54.1094 23.4922 54.3828 23.6094 54.6172 23.6875C54.7734 23.7656 54.9167 23.8177 55.0469 23.8438C55.3073 23.9479 55.4896 23.9479 55.5938 23.8438C55.4375 24.2083 55.2943 24.5208 55.1641 24.7812C55.0339 25.0417 54.9297 25.263 54.8516 25.4453C54.7474 25.6536 54.6562 25.8229 54.5781 25.9531C54.5 26.1094 54.4089 26.2526 54.3047 26.3828C54.2266 26.513 54.1224 26.6562 53.9922 26.8125C53.862 26.9688 53.7318 27.138 53.6016 27.3203C53.263 27.1901 52.9375 27.0339 52.625 26.8516C52.3385 26.6693 52.0781 26.5 51.8438 26.3438C51.5573 26.1615 51.2969 25.9792 51.0625 25.7969C50.8281 25.6146 50.6068 25.4062 50.3984 25.1719C50.2161 24.9635 50.0208 24.7422 49.8125 24.5078C49.6302 24.2734 49.474 24.013 49.3438 23.7266C49.1875 24.0651 48.8099 24.5469 48.2109 25.1719C47.638 25.7969 46.8828 26.3698 45.9453 26.8906C45.0078 27.3854 43.9141 27.737 42.6641 27.9453C41.4401 28.1536 40.0859 28.0104 38.6016 27.5156C37.9505 27.3073 37.3385 27.0078 36.7656 26.6172C36.1927 26.2005 35.6979 25.7057 35.2812 25.1328C34.8906 24.5599 34.6042 23.9089 34.4219 23.1797C34.2656 22.4245 34.2786 21.5911 34.4609 20.6797C34.6432 19.7682 34.9688 19 35.4375 18.375C35.9062 17.75 36.4661 17.2422 37.1172 16.8516C37.7682 16.4609 38.4974 16.1615 39.3047 15.9531C40.112 15.7448 40.9453 15.6016 41.8047 15.5234C42.4818 15.4974 43.1589 15.5365 43.8359 15.6406C44.4089 15.7448 45.0078 15.9401 45.6328 16.2266C46.2578 16.487 46.7917 16.8906 47.2344 17.4375C47.2083 16.0573 47.1562 14.9635 47.0781 14.1562C47.026 13.3229 46.974 12.6849 46.9219 12.2422C46.8177 11.7214 46.7266 11.3568 46.6484 11.1484C46.5182 10.9661 46.375 10.7578 46.2188 10.5234C46.0885 10.2891 45.9193 10.0807 45.7109 9.89844C45.5026 9.6901 45.2422 9.52083 44.9297 9.39062C44.6172 9.26042 44.2526 9.20833 43.8359 9.23438C43.3932 9.26042 43.0417 9.3776 42.7812 9.58594C42.5208 9.79427 42.3125 10.0417 42.1562 10.3281C42.026 10.5885 41.9479 10.875 41.9219 11.1875C41.8958 11.5 41.9089 11.7734 41.9609 12.0078C42.013 12.1641 42.0911 12.3333 42.1953 12.5156C42.2995 12.6719 42.4427 12.8411 42.625 13.0234C42.8073 13.2057 43.0547 13.362 43.3672 13.4922C42.7682 13.5703 42.2344 13.6354 41.7656 13.6875C41.2969 13.7135 40.8932 13.7526 40.5547 13.8047C40.1641 13.8568 39.8255 13.8958 39.5391 13.9219C39.2526 13.9479 38.9141 14 38.5234 14.0781C38.1849 14.1302 37.7682 14.1953 37.2734 14.2734C36.7786 14.3516 36.2057 14.4557 35.5547 14.5859C35.7109 14.4036 35.8542 14.2344 35.9844 14.0781C36.1146 13.8958 36.2318 13.7396 36.3359 13.6094C36.4401 13.4531 36.5443 13.3099 36.6484 13.1797ZM42.5078 17.8281C42.0391 17.8542 41.5703 17.9714 41.1016 18.1797C40.6328 18.362 40.2161 18.6354 39.8516 19C39.487 19.3385 39.1745 19.7422 38.9141 20.2109C38.6797 20.6536 38.5625 21.1484 38.5625 21.6953C38.5625 22.2422 38.6927 22.724 38.9531 23.1406C39.2396 23.5312 39.6042 23.8568 40.0469 24.1172C40.5156 24.3776 41.0104 24.5339 41.5312 24.5859C42.0781 24.638 42.612 24.5859 43.1328 24.4297C43.6276 24.2474 44.0964 23.9609 44.5391 23.5703C44.9818 23.1536 45.3594 22.7109 45.6719 22.2422C45.9844 21.7474 46.2057 21.2656 46.3359 20.7969C46.4661 20.3021 46.4792 19.8984 46.375 19.5859C46.1667 18.9089 45.6979 18.4401 44.9688 18.1797C44.2396 17.8932 43.4193 17.776 42.5078 17.8281ZM54.8125 10.2891C55.3073 10.3151 55.75 10.3281 56.1406 10.3281C56.5573 10.3021 56.9089 10.276 57.1953 10.25C57.5339 10.224 57.8333 10.1979 58.0938 10.1719C58.4844 10.1198 58.888 10.0547 59.3047 9.97656C59.6693 9.92448 60.0469 9.85938 60.4375 9.78125C60.8542 9.67708 61.2578 9.5599 61.6484 9.42969C61.4922 9.82031 61.362 10.1589 61.2578 10.4453C61.1536 10.7318 61.0755 10.9792 61.0234 11.1875C60.9453 11.4219 60.9062 11.6172 60.9062 11.7734C60.8802 11.9557 60.8672 12.1771 60.8672 12.4375C60.8411 12.8802 60.8411 13.5964 60.8672 14.5859C62.2214 13.4141 63.3542 12.5026 64.2656 11.8516C65.2031 11.2005 65.9453 10.6927 66.4922 10.3281C67.1432 9.91146 67.651 9.63802 68.0156 9.50781C68.9792 9.35156 69.8255 9.57292 70.5547 10.1719C70.8672 10.4323 71.1667 10.7839 71.4531 11.2266C71.7396 11.6432 71.987 12.2031 72.1953 12.9062C72.4036 13.6094 72.5599 14.4557 72.6641 15.4453C72.7682 16.4089 72.7812 17.5677 72.7031 18.9219C72.1562 18.974 71.6615 19.026 71.2188 19.0781C70.8021 19.1302 70.4505 19.1693 70.1641 19.1953C69.8255 19.2474 69.513 19.2734 69.2266 19.2734L68.1719 19.3906C67.8073 19.4427 67.3516 19.4948 66.8047 19.5469C66.2839 19.5729 65.6458 19.625 64.8906 19.7031C65.9844 18.8177 66.6875 18.0495 67 17.3984C67.3385 16.7214 67.4818 16.1615 67.4297 15.7188C67.3776 15.224 67.1432 14.7943 66.7266 14.4297C66.2318 14.1432 65.6979 14.0391 65.125 14.1172C64.6302 14.1693 64.0573 14.3906 63.4062 14.7812C62.7552 15.1719 62.0651 15.901 61.3359 16.9688C61.388 18.6354 61.4401 20.0156 61.4922 21.1094C61.5703 22.2031 61.6354 23.0885 61.6875 23.7656C61.7656 24.5469 61.8307 25.1589 61.8828 25.6016C61.9609 25.9922 62.1172 26.4089 62.3516 26.8516C62.5339 27.2161 62.7943 27.6198 63.1328 28.0625C63.4714 28.5052 63.9141 28.9479 64.4609 29.3906C63.3151 29.3385 62.3776 29.3385 61.6484 29.3906C61.2057 29.4167 60.8151 29.4427 60.4766 29.4688C60.112 29.5208 59.7214 29.5729 59.3047 29.625C58.9401 29.6771 58.5104 29.7292 58.0156 29.7812C57.5469 29.8594 57.026 29.9375 56.4531 30.0156C56.6615 29.7292 56.8307 29.3906 56.9609 29C57.0911 28.6354 57.1953 28.2839 57.2734 27.9453C57.3776 27.5547 57.4557 27.151 57.5078 26.7344C57.5339 26.3698 57.5469 25.8229 57.5469 25.0938C57.5729 24.3646 57.5599 23.5443 57.5078 22.6328C57.4818 21.6953 57.4427 20.7318 57.3906 19.7422C57.3385 18.7266 57.2734 17.776 57.1953 16.8906C57.1172 16.0052 57.026 15.237 56.9219 14.5859C56.8438 13.9089 56.7526 13.4401 56.6484 13.1797C56.5182 12.8672 56.362 12.5547 56.1797 12.2422C56.0234 11.9557 55.8281 11.6562 55.5938 11.3438C55.3594 11.0052 55.099 10.6536 54.8125 10.2891ZM73.9531 0.835938C74.2396 0.966146 74.5781 1.05729 74.9688 1.10938C75.3854 1.16146 75.776 1.1875 76.1406 1.1875C76.5833 1.1875 77.0391 1.17448 77.5078 1.14844C77.9766 1.1224 78.5495 1.07031 79.2266 0.992188C79.7734 0.940104 80.4505 0.875 81.2578 0.796875C82.0651 0.71875 82.9635 0.614583 83.9531 0.484375C83.5885 0.666667 83.276 0.861979 83.0156 1.07031C82.7552 1.27865 82.5339 1.48698 82.3516 1.69531C82.1432 1.92969 81.974 2.16406 81.8438 2.39844C81.6615 2.71094 81.4141 3.25781 81.1016 4.03906C80.8151 4.79427 80.5156 5.64062 80.2031 6.57812C79.9167 7.51562 79.6562 8.46615 79.4219 9.42969C79.2135 10.3932 79.0964 11.2135 79.0703 11.8906C79.0443 12.4635 79.0182 13.1146 78.9922 13.8438C78.9661 14.4688 78.9401 15.237 78.9141 16.1484C78.888 17.0599 78.862 18.1016 78.8359 19.2734C80.7109 17.9193 82.1562 16.8385 83.1719 16.0312C84.1875 15.1979 84.9297 14.5599 85.3984 14.1172C85.9453 13.6224 86.2708 13.2708 86.375 13.0625C86.349 12.9062 86.2839 12.737 86.1797 12.5547C86.0495 12.3984 85.8672 12.2161 85.6328 12.0078C85.3984 11.7995 85.0469 11.5651 84.5781 11.3047C85.2552 11.3828 85.8411 11.4349 86.3359 11.4609C86.8568 11.487 87.2995 11.513 87.6641 11.5391C88.0807 11.5651 88.4453 11.5651 88.7578 11.5391C89.0964 11.5391 89.513 11.526 90.0078 11.5C90.8672 11.474 92.1953 11.4349 93.9922 11.3828C92.2474 12.2943 90.8672 13.0755 89.8516 13.7266C89.2786 14.0911 88.7708 14.4297 88.3281 14.7422C87.8854 15.0807 87.4297 15.4323 86.9609 15.7969C86.5443 16.1094 86.0625 16.474 85.5156 16.8906C84.9948 17.3073 84.474 17.75 83.9531 18.2188C84.8646 19.7031 85.6589 20.9271 86.3359 21.8906C87.0391 22.8542 87.625 23.6354 88.0938 24.2344C88.6406 24.9375 89.1224 25.4974 89.5391 25.9141C89.9557 26.3047 90.5026 26.7474 91.1797 27.2422C91.7526 27.6849 92.4948 28.2057 93.4062 28.8047C94.3438 29.3776 95.4766 30.0417 96.8047 30.7969C96.1276 30.6667 95.4766 30.5755 94.8516 30.5234C94.2266 30.4974 93.6927 30.4974 93.25 30.5234C92.7031 30.5495 92.2083 30.6016 91.7656 30.6797C91.2969 30.7839 90.776 30.9141 90.2031 31.0703C89.7083 31.2005 89.1224 31.3698 88.4453 31.5781C87.7943 31.8125 87.0781 32.112 86.2969 32.4766C86.7917 32.112 87.1562 31.7604 87.3906 31.4219C87.651 31.1094 87.8333 30.849 87.9375 30.6406C88.0417 30.3802 88.0807 30.1589 88.0547 29.9766C87.9245 29.7161 87.625 29.1823 87.1562 28.375C86.7135 27.6979 86.0625 26.7083 85.2031 25.4062C84.3438 24.1042 83.1198 22.3333 81.5312 20.0938C81.4531 20.1198 81.3229 20.1979 81.1406 20.3281C80.9844 20.4583 80.75 20.6406 80.4375 20.875C80.125 21.0833 79.7083 21.3958 79.1875 21.8125L80.2422 28.6484C80.0078 28.7526 79.7474 28.8438 79.4609 28.9219C79.2005 29 78.9531 29.0651 78.7188 29.1172C78.4323 29.1953 78.1458 29.2474 77.8594 29.2734C77.5729 29.2995 77.2344 29.3516 76.8438 29.4297C76.5052 29.4818 76.1016 29.5469 75.6328 29.625C75.1641 29.7292 74.6302 29.8464 74.0312 29.9766C74.3698 29.7422 74.6432 29.4688 74.8516 29.1562C75.0599 28.8698 75.2292 28.5964 75.3594 28.3359C75.4896 28.0495 75.6068 27.75 75.7109 27.4375C75.763 27.1771 75.8151 26.5 75.8672 25.4062C75.9453 24.3125 76.0104 23.0104 76.0625 21.5C76.1146 19.9635 76.1536 18.3229 76.1797 16.5781C76.2318 14.8333 76.2578 13.1927 76.2578 11.6562C76.2578 10.0938 76.2448 8.73958 76.2188 7.59375C76.1927 6.42188 76.1406 5.66667 76.0625 5.32812C75.9323 4.91146 75.776 4.46875 75.5938 4C75.4375 3.58333 75.2161 3.11458 74.9297 2.59375C74.6693 2.04688 74.3438 1.46094 73.9531 0.835938ZM102.742 22.7109C103.471 22.7109 104.148 22.6328 104.773 22.4766C105.294 22.3464 105.789 22.138 106.258 21.8516C106.753 21.5391 107.078 21.0833 107.234 20.4844C107.755 20.5885 108.198 20.6797 108.562 20.7578C108.927 20.8099 109.24 20.862 109.5 20.9141C109.786 20.9922 110.034 21.0443 110.242 21.0703C110.451 21.1224 110.698 21.1745 110.984 21.2266C111.245 21.2786 111.557 21.3438 111.922 21.4219C112.312 21.474 112.768 21.5521 113.289 21.6562C112.898 21.6042 112.495 21.6432 112.078 21.7734C111.688 21.9036 111.31 22.0469 110.945 22.2031C110.529 22.3854 110.138 22.6068 109.773 22.8672C109.539 23.0234 109.266 23.2578 108.953 23.5703C108.667 23.8828 108.25 24.1823 107.703 24.4688C107.156 24.7552 106.427 25.0026 105.516 25.2109C104.63 25.3932 103.484 25.4583 102.078 25.4062C100.385 25.3542 98.9661 25.0547 97.8203 24.5078C96.6745 23.9349 95.75 23.2448 95.0469 22.4375C94.3438 21.6042 93.8359 20.7057 93.5234 19.7422C93.2109 18.7786 93.0417 17.8802 93.0156 17.0469C92.9896 16.2135 93.237 15.3411 93.7578 14.4297C94.2786 13.5182 95.0078 12.6849 95.9453 11.9297C96.9089 11.1745 98.0677 10.5625 99.4219 10.0938C100.776 9.59896 102.26 9.35156 103.875 9.35156C104.812 9.35156 105.672 9.46875 106.453 9.70312C107.26 9.91146 107.99 10.1979 108.641 10.5625C109.318 10.9271 109.904 11.3438 110.398 11.8125C110.893 12.2552 111.31 12.7109 111.648 13.1797C111.987 13.6745 112.273 14.1953 112.508 14.7422C112.716 15.2109 112.885 15.7448 113.016 16.3438C113.146 16.9427 113.185 17.5547 113.133 18.1797C111.154 18.2318 109.552 18.2708 108.328 18.2969C107.13 18.3229 106.193 18.3359 105.516 18.3359H103.758H102.43C101.961 18.3359 101.349 18.349 100.594 18.375C99.8385 18.401 98.9141 18.4401 97.8203 18.4922C97.9505 19.5339 98.276 20.3411 98.7969 20.9141C99.3438 21.4609 99.9167 21.8776 100.516 22.1641C101.193 22.4766 101.935 22.6589 102.742 22.7109ZM99.2266 15.6797C100.06 15.7318 100.75 15.7708 101.297 15.7969C101.87 15.8229 102.339 15.849 102.703 15.875C103.094 15.901 103.406 15.9141 103.641 15.9141H104.617C105.268 15.9141 106.479 15.875 108.25 15.7969C108.172 14.651 107.924 13.7786 107.508 13.1797C107.117 12.5807 106.701 12.138 106.258 11.8516C105.737 11.5391 105.164 11.3568 104.539 11.3047C102.846 11.3307 101.583 11.6823 100.75 12.3594C99.9427 13.0365 99.4349 14.1432 99.2266 15.6797ZM114.227 4.39062C115.008 4.46875 115.659 4.53385 116.18 4.58594C116.727 4.63802 117.169 4.67708 117.508 4.70312C117.898 4.72917 118.211 4.74219 118.445 4.74219C118.68 4.76823 118.992 4.76823 119.383 4.74219C119.721 4.71615 120.164 4.6901 120.711 4.66406C121.258 4.61198 121.948 4.53385 122.781 4.42969C122.599 4.6901 122.456 4.92448 122.352 5.13281C122.247 5.3151 122.156 5.48438 122.078 5.64062L121.844 6.10938C121.792 6.26562 121.74 6.42188 121.688 6.57812C121.635 6.70833 121.583 6.86458 121.531 7.04688C121.505 7.22917 121.479 7.42448 121.453 7.63281H127.469L126.922 10.7969L121.414 10.4844C121.284 11.8125 121.193 12.8411 121.141 13.5703C121.089 14.2995 121.036 14.8333 120.984 15.1719L120.906 15.875C120.828 16.8646 120.75 17.9453 120.672 19.1172C120.594 20.263 120.568 21.3307 120.594 22.3203C120.62 23.3099 120.711 24.1432 120.867 24.8203C121.023 25.4714 121.297 25.7969 121.688 25.7969C122.078 25.7969 122.443 25.6927 122.781 25.4844C123.12 25.276 123.406 25.0286 123.641 24.7422C123.901 24.4557 124.096 24.1693 124.227 23.8828C124.357 23.5703 124.422 23.3359 124.422 23.1797C124.422 23.0234 124.383 22.8411 124.305 22.6328C124.174 22.2422 123.94 21.7474 123.602 21.1484C124.357 21.3307 125.021 21.513 125.594 21.6953C125.88 21.7995 126.141 21.9036 126.375 22.0078C126.635 22.112 126.935 22.2292 127.273 22.3594C127.56 22.4896 127.924 22.6458 128.367 22.8281C128.81 23.0104 129.331 23.2318 129.93 23.4922C129.357 23.5964 128.94 23.7656 128.68 24C128.523 24.1042 128.406 24.2214 128.328 24.3516C128.146 24.638 127.938 25.0286 127.703 25.5234C127.469 25.9922 127.117 26.4609 126.648 26.9297C126.18 27.3984 125.542 27.8151 124.734 28.1797C123.953 28.5443 122.898 28.7526 121.57 28.8047C120.19 28.8568 119.135 28.6224 118.406 28.1016C117.703 27.5807 117.182 26.9818 116.844 26.3047C116.531 25.6016 116.349 24.9115 116.297 24.2344C116.245 23.5573 116.206 23.1016 116.18 22.8672C116.154 22.6328 116.154 22.0469 116.18 21.1094C116.206 20.1719 116.245 19.1432 116.297 18.0234C116.349 16.8776 116.401 15.7839 116.453 14.7422C116.505 13.6745 116.531 12.8932 116.531 12.3984C116.531 12.138 116.544 11.8646 116.57 11.5781C116.57 11.3438 116.57 11.0964 116.57 10.8359C116.596 10.5495 116.609 10.276 116.609 10.0156L110.945 9.97656L110.711 7.75L116.414 7.90625C116.362 7.61979 116.297 7.35938 116.219 7.125C116.167 6.86458 116.115 6.65625 116.062 6.5C115.984 6.31771 115.906 6.16146 115.828 6.03125C115.724 5.90104 115.607 5.75781 115.477 5.60156C115.346 5.47135 115.177 5.30208 114.969 5.09375C114.76 4.88542 114.513 4.65104 114.227 4.39062Z" fill="#004EFF"/>
<path d="M127.156 1.07031C127.99 1.27865 128.784 1.4349 129.539 1.53906C130.294 1.64323 130.958 1.72135 131.531 1.77344C132.208 1.85156 132.833 1.8776 133.406 1.85156C134.135 1.85156 135.047 1.78646 136.141 1.65625C137.26 1.52604 138.406 1.40885 139.578 1.30469C140.75 1.17448 141.87 1.09635 142.938 1.07031C144.031 1.01823 144.917 1.08333 145.594 1.26562C146.271 1.42188 146.961 1.66927 147.664 2.00781C148.393 2.32031 149.057 2.72396 149.656 3.21875C150.255 3.6875 150.75 4.2474 151.141 4.89844C151.531 5.52344 151.753 6.23958 151.805 7.04688C151.779 8.0625 151.544 9.01302 151.102 9.89844C150.737 10.6536 150.125 11.4349 149.266 12.2422C148.406 13.0234 147.169 13.6224 145.555 14.0391C146.362 14.1432 147.052 14.3255 147.625 14.5859C148.224 14.8203 148.732 15.1068 149.148 15.4453C149.591 15.7578 149.943 16.1094 150.203 16.5C150.49 16.8906 150.711 17.2812 150.867 17.6719C151.258 18.5833 151.44 19.599 151.414 20.7188C151.258 22.1771 150.958 23.3359 150.516 24.1953C150.099 25.0547 149.617 25.7188 149.07 26.1875C148.523 26.6562 147.964 26.9818 147.391 27.1641C146.818 27.3464 146.297 27.4896 145.828 27.5938C145.359 27.6979 144.786 27.75 144.109 27.75C143.432 27.75 142.703 27.737 141.922 27.7109C141.167 27.6589 140.385 27.6198 139.578 27.5938C138.771 27.5417 138.003 27.5417 137.273 27.5938C136.674 27.6458 135.945 27.6979 135.086 27.75C134.357 27.8021 133.445 27.8672 132.352 27.9453C131.258 27.9974 129.982 28.0625 128.523 28.1406C128.81 27.9323 129.044 27.6979 129.227 27.4375C129.435 27.151 129.604 26.9036 129.734 26.6953C129.865 26.4349 129.982 26.1875 130.086 25.9531C130.164 25.7448 130.229 25.1719 130.281 24.2344C130.333 23.2969 130.372 22.1771 130.398 20.875C130.424 19.5469 130.438 18.1276 130.438 16.6172C130.464 15.0807 130.451 13.6094 130.398 12.2031C130.372 10.7708 130.32 9.50781 130.242 8.41406C130.19 7.29427 130.112 6.48698 130.008 5.99219C129.852 5.44531 129.643 4.88542 129.383 4.3125C129.174 3.81771 128.875 3.28385 128.484 2.71094C128.12 2.13802 127.677 1.59115 127.156 1.07031ZM135.398 5.05469C135.398 5.15885 135.411 5.51042 135.438 6.10938C135.464 6.63021 135.49 7.4375 135.516 8.53125C135.568 9.59896 135.633 11.1224 135.711 13.1016C136.362 13.388 137 13.5443 137.625 13.5703C138.25 13.5703 138.81 13.5443 139.305 13.4922C139.878 13.4141 140.424 13.2839 140.945 13.1016C141.648 12.8151 142.195 12.3464 142.586 11.6953C143.003 11.0443 143.276 10.3672 143.406 9.66406C143.562 8.9349 143.602 8.25781 143.523 7.63281C143.445 6.98177 143.276 6.51302 143.016 6.22656C142.521 5.78385 141.909 5.41927 141.18 5.13281C140.555 4.89844 139.76 4.74219 138.797 4.66406C137.859 4.5599 136.727 4.6901 135.398 5.05469ZM135.203 23.5703C136.167 24.0651 137.013 24.3906 137.742 24.5469C138.471 24.7031 139.083 24.7812 139.578 24.7812C140.151 24.7812 140.646 24.7031 141.062 24.5469C141.557 24.3125 142.039 24 142.508 23.6094C143.003 23.1927 143.367 22.7109 143.602 22.1641C143.862 21.5911 143.966 20.9661 143.914 20.2891C143.862 19.5859 143.562 18.8177 143.016 17.9844C142.521 17.3854 141.922 16.9167 141.219 16.5781C140.594 16.2917 139.799 16.1094 138.836 16.0312C137.898 15.9531 136.74 16.1745 135.359 16.6953L135.203 23.5703ZM164.07 11.5C164.747 11.5 165.451 11.6302 166.18 11.8906C166.909 12.125 167.612 12.4375 168.289 12.8281C168.966 13.1927 169.578 13.5964 170.125 14.0391C170.698 14.4557 171.167 14.8594 171.531 15.25C172.182 15.9531 172.625 16.9036 172.859 18.1016C173.12 19.2734 173.172 20.4844 173.016 21.7344C172.859 22.9583 172.495 24.1172 171.922 25.2109C171.349 26.3047 170.555 27.112 169.539 27.6328C168.81 27.9974 168.094 28.2839 167.391 28.4922C166.688 28.7005 166.01 28.8568 165.359 28.9609C164.708 29.0651 164.096 29.1172 163.523 29.1172C162.951 29.1172 162.456 29.1042 162.039 29.0781C161.258 29.026 160.438 28.7526 159.578 28.2578C158.745 27.763 157.951 27.151 157.195 26.4219C156.466 25.6927 155.841 24.8984 155.32 24.0391C154.799 23.1536 154.487 22.3203 154.383 21.5391C154.227 20.4714 154.201 19.3516 154.305 18.1797C154.409 17.0078 154.786 15.9271 155.438 14.9375C156.115 13.9479 157.13 13.1276 158.484 12.4766C159.865 11.8255 161.727 11.5 164.07 11.5ZM162.781 26.6562C163.068 26.7083 163.458 26.6432 163.953 26.4609C164.448 26.2526 164.93 25.9271 165.398 25.4844C165.893 25.0417 166.323 24.4818 166.688 23.8047C167.078 23.1016 167.312 22.2552 167.391 21.2656C167.469 20.3021 167.469 19.4167 167.391 18.6094C167.339 17.8021 167.221 17.099 167.039 16.5C166.857 15.875 166.648 15.3672 166.414 14.9766C166.18 14.5859 165.932 14.3125 165.672 14.1562C165.229 13.9219 164.695 13.7396 164.07 13.6094C163.445 13.4531 162.911 13.4792 162.469 13.6875C162.26 13.7917 162 14.013 161.688 14.3516C161.375 14.6901 161.062 15.1198 160.75 15.6406C160.438 16.1354 160.151 16.7083 159.891 17.3594C159.656 18.0104 159.487 18.6875 159.383 19.3906C159.279 20.0938 159.253 20.849 159.305 21.6562C159.383 22.4635 159.552 23.2318 159.812 23.9609C160.073 24.6641 160.438 25.276 160.906 25.7969C161.401 26.2917 162.026 26.5781 162.781 26.6562ZM185.359 11.5C186.036 11.5 186.74 11.6302 187.469 11.8906C188.198 12.125 188.901 12.4375 189.578 12.8281C190.255 13.1927 190.867 13.5964 191.414 14.0391C191.987 14.4557 192.456 14.8594 192.82 15.25C193.471 15.9531 193.914 16.9036 194.148 18.1016C194.409 19.2734 194.461 20.4844 194.305 21.7344C194.148 22.9583 193.784 24.1172 193.211 25.2109C192.638 26.3047 191.844 27.112 190.828 27.6328C190.099 27.9974 189.383 28.2839 188.68 28.4922C187.977 28.7005 187.299 28.8568 186.648 28.9609C185.997 29.0651 185.385 29.1172 184.812 29.1172C184.24 29.1172 183.745 29.1042 183.328 29.0781C182.547 29.026 181.727 28.7526 180.867 28.2578C180.034 27.763 179.24 27.151 178.484 26.4219C177.755 25.6927 177.13 24.8984 176.609 24.0391C176.089 23.1536 175.776 22.3203 175.672 21.5391C175.516 20.4714 175.49 19.3516 175.594 18.1797C175.698 17.0078 176.076 15.9271 176.727 14.9375C177.404 13.9479 178.419 13.1276 179.773 12.4766C181.154 11.8255 183.016 11.5 185.359 11.5ZM184.07 26.6562C184.357 26.7083 184.747 26.6432 185.242 26.4609C185.737 26.2526 186.219 25.9271 186.688 25.4844C187.182 25.0417 187.612 24.4818 187.977 23.8047C188.367 23.1016 188.602 22.2552 188.68 21.2656C188.758 20.3021 188.758 19.4167 188.68 18.6094C188.628 17.8021 188.51 17.099 188.328 16.5C188.146 15.875 187.938 15.3672 187.703 14.9766C187.469 14.5859 187.221 14.3125 186.961 14.1562C186.518 13.9219 185.984 13.7396 185.359 13.6094C184.734 13.4531 184.201 13.4792 183.758 13.6875C183.549 13.7917 183.289 14.013 182.977 14.3516C182.664 14.6901 182.352 15.1198 182.039 15.6406C181.727 16.1354 181.44 16.7083 181.18 17.3594C180.945 18.0104 180.776 18.6875 180.672 19.3906C180.568 20.0938 180.542 20.849 180.594 21.6562C180.672 22.4635 180.841 23.2318 181.102 23.9609C181.362 24.6641 181.727 25.276 182.195 25.7969C182.69 26.2917 183.315 26.5781 184.07 26.6562ZM195.984 10.4844C196.583 10.4323 197.091 10.3802 197.508 10.3281C197.951 10.276 198.315 10.224 198.602 10.1719C198.94 10.1198 199.227 10.0677 199.461 10.0156C199.695 9.98958 199.956 9.9375 200.242 9.85938C200.503 9.80729 200.789 9.74219 201.102 9.66406C201.44 9.5599 201.805 9.44271 202.195 9.3125L201.961 14.2734C202.534 13.362 203.198 12.6719 203.953 12.2031C204.708 11.7083 205.424 11.3438 206.102 11.1094C206.909 10.8229 207.716 10.6536 208.523 10.6016C209.357 10.6276 210.125 10.7578 210.828 10.9922C211.427 11.2005 212.026 11.526 212.625 11.9688C213.25 12.4115 213.732 13.0625 214.07 13.9219C214.956 13.0104 215.828 12.3073 216.688 11.8125C217.573 11.2917 218.354 10.901 219.031 10.6406C219.839 10.3542 220.594 10.1849 221.297 10.1328C222.234 10.1068 223.094 10.263 223.875 10.6016C224.682 10.9401 225.385 11.3698 225.984 11.8906C226.583 12.3854 227.065 12.9193 227.43 13.4922C227.794 14.0391 228.003 14.5208 228.055 14.9375C228.133 15.5104 228.094 16.2526 227.938 17.1641C227.781 18.0495 227.599 18.9609 227.391 19.8984C227.182 20.8099 226.987 21.6562 226.805 22.4375C226.648 23.1927 226.583 23.7266 226.609 24.0391C226.688 24.2995 226.87 24.612 227.156 24.9766C227.417 25.2891 227.794 25.6797 228.289 26.1484C228.81 26.5911 229.552 27.112 230.516 27.7109C229.682 27.6849 228.94 27.6589 228.289 27.6328C227.664 27.6068 227.13 27.5677 226.688 27.5156C226.167 27.4635 225.711 27.4245 225.32 27.3984C225.008 27.3984 224.63 27.3724 224.188 27.3203C223.823 27.2943 223.341 27.2552 222.742 27.2031C222.169 27.151 221.505 27.099 220.75 27.0469C221.036 26.9688 221.271 26.8255 221.453 26.6172C221.635 26.3828 221.792 26.1615 221.922 25.9531C222.052 25.6927 222.156 25.4062 222.234 25.0938C222.286 24.8333 222.339 24.4167 222.391 23.8438C222.443 23.2708 222.482 22.6198 222.508 21.8906C222.56 21.1615 222.586 20.3932 222.586 19.5859C222.612 18.7786 222.612 18.0104 222.586 17.2812C222.56 16.5521 222.508 15.888 222.43 15.2891C222.352 14.6901 222.247 14.2344 222.117 13.9219C222.013 13.6875 221.831 13.5052 221.57 13.375C221.31 13.2188 221.01 13.1276 220.672 13.1016C220.333 13.0495 219.995 13.0625 219.656 13.1406C219.318 13.1927 219.018 13.2969 218.758 13.4531C218.523 13.6354 218.211 13.8828 217.82 14.1953C217.482 14.4818 217.039 14.8724 216.492 15.3672C215.945 15.862 215.255 16.487 214.422 17.2422C214.344 18.8828 214.279 20.2109 214.227 21.2266C214.201 22.2161 214.174 22.9714 214.148 23.4922C214.122 24.1172 214.109 24.5469 214.109 24.7812C214.083 24.9896 214.096 25.1849 214.148 25.3672C214.201 25.7578 214.357 26.1224 214.617 26.4609C214.305 26.3828 213.966 26.3307 213.602 26.3047C213.263 26.2786 212.951 26.2526 212.664 26.2266C212.326 26.2005 211.987 26.1875 211.648 26.1875C211.362 26.1875 211.049 26.2005 210.711 26.2266C210.424 26.2526 210.073 26.2917 209.656 26.3438C209.24 26.3698 208.784 26.4089 208.289 26.4609C208.497 26.3307 208.667 26.1745 208.797 25.9922C208.927 25.8099 209.031 25.6406 209.109 25.4844C209.214 25.3021 209.292 25.1328 209.344 24.9766C209.37 24.8203 209.422 24.4427 209.5 23.8438C209.578 23.2188 209.63 22.4896 209.656 21.6562C209.682 20.8229 209.682 19.9505 209.656 19.0391C209.63 18.1016 209.539 17.2552 209.383 16.5C209.227 15.7188 208.979 15.0807 208.641 14.5859C208.328 14.0911 207.911 13.8698 207.391 13.9219C206.766 13.974 206.128 14.1302 205.477 14.3906C204.93 14.599 204.344 14.9115 203.719 15.3281C203.094 15.7448 202.508 16.3047 201.961 17.0078C201.857 18.9609 201.792 20.5104 201.766 21.6562C201.766 22.8021 201.779 23.6745 201.805 24.2734C201.831 24.9766 201.857 25.4583 201.883 25.7188C201.909 25.901 201.974 26.0833 202.078 26.2656C202.156 26.4219 202.247 26.6042 202.352 26.8125C202.482 27.0208 202.625 27.2161 202.781 27.3984L196.57 27.0859C196.779 26.9818 196.961 26.8516 197.117 26.6953C197.273 26.513 197.404 26.3307 197.508 26.1484C197.612 25.9401 197.716 25.7318 197.82 25.5234C197.898 25.3411 197.964 24.9115 198.016 24.2344C198.094 23.5573 198.159 22.763 198.211 21.8516C198.263 20.9141 198.302 19.9375 198.328 18.9219C198.38 17.8802 198.406 16.9167 198.406 16.0312C198.432 15.1198 198.445 14.3516 198.445 13.7266C198.445 13.0755 198.432 12.6849 198.406 12.5547C198.328 12.2943 198.185 12.0208 197.977 11.7344C197.794 11.526 197.547 11.3047 197.234 11.0703C196.922 10.8099 196.505 10.6146 195.984 10.4844Z" fill="black"/>
</svg>
